PathFileType	4	(X/Y/Z)	./resultDataOpenSim/trcMotMarkerGrf/sub09/qtm-12-05.trc
DataRate	CameraRate	NumFrames	NumMarkers	Units	OrigDataRate	OrigDataStartFrame	OrigNumFrames
250.000000	250.000000	13	24	m	250.000000	355	473
Frame#	Time	L.Toe.Tip			R.Toe.Tip			L.Ankle.Lat			R.Ankle.Lat			L.Ankle.Med			R.Ankle.Med			L.Heel			R.Heel			L.Knee.Lat			R.Knee.Lat			L.Knee.Med			R.Knee.Med			L.Thigh.Upper			R.Thigh.Upper			L.ASIS			R.ASIS			V.Sacral			L.Acromium			R.Acromium			C7			L.Elbow			R.Elbow			L.Wrist.Lat			R.Wrist.Lat
		X1	Y1	Z1	X2	Y2	Z2	X3	Y3	Z3	X4	Y4	Z4	X5	Y5	Z5	X6	Y6	Z6	X7	Y7	Z7	X8	Y8	Z8	X9	Y9	Z9	X10	Y10	Z10	X11	Y11	Z11	X12	Y12	Z12	X13	Y13	Z13	X14	Y14	Z14	X15	Y15	Z15	X16	Y16	Z16	X17	Y17	Z17	X18	Y18	Z18	X19	Y19	Z19	X20	Y20	Z20	X21	Y21	Z21	X22	Y22	Z22	X23	Y23	Z23	X24	Y24	Z24

355	1.416	0.90602967	0.083543156	-0.099868389	1.0286958	0.038087453	0.037112417	0.79877425	0.19163719	-0.12443505	0.88240874	0.05824996	0.076166863	0.83172718	0.18776811	-0.03116273	0.89242111	0.097431805	-0.016516426	0.71956754	0.19249858	-0.073816037	0.81168378	0.042463373	0.029299669	1.065541	0.50549778	-0.14940475	0.99734852	0.50270791	0.13360878	1.0758372	0.49522596	-0.02486864	0.97273631	0.49319073	0.0072950354	0.92142897	0.89545785	-0.17239982	0.93570004	0.90673859	0.19804329	0.99721059	0.9839751	-0.118321	1.0203109	0.9925218	0.11931978	0.84054308	1.04223	0.011521037	0.98902798	1.4350165	-0.17874505	0.99228625	1.4547609	0.15267302	0.92258252	1.4946948	-0.010537156	0.83851595	1.0946689	-0.21265509	0.86343641	1.116763	0.25701795	0.96212982	0.86358431	-0.25344705	1.0313865	0.89645891	0.2641002
356	1.42	0.92480153	0.081964634	-0.099961447	1.0287386	0.038076723	0.037146853	0.81472871	0.18717216	-0.12450664	0.88249937	0.058656898	0.076188939	0.8480509	0.18412642	-0.031332342	0.89290132	0.097838825	-0.016497739	0.73548382	0.18603413	-0.07397511	0.81205582	0.042955651	0.02947517	1.0747088	0.50727324	-0.14934637	0.99871219	0.5027432	0.13373977	1.0901583	0.49784495	-0.02347494	0.97406296	0.49347102	0.0074129438	0.92725601	0.89642648	-0.17260913	0.94120546	0.90750085	0.19763682	1.0029893	0.98490342	-0.11842816	1.025562	0.99313019	0.11935175	0.84589094	1.0428703	0.011285754	0.99413005	1.4356824	-0.17889936	0.99798329	1.4555964	0.15236466	0.92787922	1.4954119	-0.010631597	0.84287545	1.0957225	-0.21266813	0.86972472	1.1173595	0.25731767	0.96555391	0.86427852	-0.2542192	1.0386425	0.89789797	0.26350327
357	1.424	0.94372466	0.080417904	-0.10006505	1.0288199	0.038066076	0.037168908	0.83083248	0.18264746	-0.12457497	0.88261448	0.059065229	0.076197397	0.86426731	0.18042259	-0.031429567	0.8934539	0.098281314	-0.016396197	0.75162071	0.17949317	-0.074157839	0.81227023	0.043511597	0.02954369	1.0838828	0.50890766	-0.14931284	1.000129	0.50284056	0.13387404	1.1074624	0.50056312	-0.021195555	0.97543166	0.49375937	0.0075857396	0.93304249	0.89731202	-0.17282036	0.94688091	0.90826835	0.1971559	1.0086345	0.9857691	-0.1184884	1.0308176	0.99369194	0.11936919	0.85127236	1.0434605	0.011019159	0.9992307	1.4362902	-0.17904822	1.0037648	1.4563617	0.15199684	0.93316734	1.4960741	-0.010726248	0.84722413	1.0967051	-0.21267997	0.87578836	1.1178299	0.25747948	0.96898723	0.8649442	-0.25497367	1.0459	0.899276	0.26289175
358	1.428	0.96264602	0.078889201	-0.10017795	1.0289323	0.038027171	0.037171349	0.8470885	0.17806091	-0.12464477	0.88276168	0.059473469	0.076198329	0.88051593	0.17668032	-0.031497109	0.8941078	0.098743556	-0.016265743	0.76797484	0.17291015	-0.074370627	0.81239338	0.044123076	0.02951675	1.0929094	0.5104082	-0.14933987	1.0015251	0.50297937	0.13397368	1.1238656	0.50308878	-0.019115764	0.97692999	0.49402146	0.0078083498	0.93879147	0.89811272	-0.17302951	0.95258741	0.90899367	0.19667458	1.0141789	0.98657134	-0.11851487	1.0360825	0.99421269	0.11937381	0.85672074	1.0440098	0.010758796	1.0043359	1.4368461	-0.17919428	1.0095047	1.45706	0.1516558	0.93845606	1.496679	-0.010819837	0.85157324	1.0976151	-0.21269568	0.88171238	1.1182018	0.25754787	0.97245142	0.86556892	-0.25571041	1.0531546	0.90059882	0.26226936
359	1.432	0.98154441	0.077390196	-0.10028998	1.0290489	0.037948633	0.037157577	0.86350041	0.17342129	-0.12472138	0.8829195	0.059891015	0.076203058	0.89685492	0.17293314	-0.031552722	0.89453111	0.09913924	-0.016173037	0.78455265	0.16627444	-0.074563998	0.81249036	0.044748662	0.029440337	1.1016212	0.51179898	-0.14942843	1.0028361	0.50309899	0.13402131	1.1365669	0.50520706	-0.018013977	0.97868209	0.49421984	0.0081049904	0.94452181	0.89882453	-0.17322269	0.95808189	0.90957437	0.19634906	1.0196862	0.98730529	-0.11853167	1.0413619	0.99470048	0.11936729	0.8622366	1.0445243	0.01052526	1.0094437	1.4373571	-0.17934427	1.0151127	1.4576985	0.15139947	0.94374394	1.4972373	-0.010909132	0.85596169	1.0984636	-0.2127247	0.88762045	1.1185183	0.25759935	0.97595854	0.86614597	-0.25643126	1.0603976	0.90187201	0.26164288
360	1.436	1.0004991	0.075971121	-0.10038909	1.0291334	0.03785232	0.037143283	0.88007776	0.16874156	-0.12480977	0.8830605	0.06031804	0.076205038	0.91327915	0.16919657	-0.031594053	0.89438627	0.099419814	-0.016147361	0.80139213	0.15951554	-0.074651803	0.81258399	0.045341495	0.029320571	1.1099919	0.51311068	-0.14954488	1.0040303	0.50316661	0.13401192	1.1459396	0.50694535	-0.01779072	0.98062838	0.4943686	0.0084531922	0.95024016	0.89944524	-0.17338863	0.96311147	0.90990469	0.19634388	1.0251996	0.9879645	-0.1185545	1.0466542	0.9951566	0.11935044	0.86777293	1.0449842	0.010299271	1.0145486	1.4378237	-0.1794974	1.0206025	1.458289	0.15121711	0.9490253	1.4977542	-0.010992116	0.86042962	1.0992629	-0.21277495	0.89357486	1.1188034	0.25767928	0.97950558	0.86667495	-0.25713669	1.0676253	0.90309457	0.26101864
361	1.44	1.0195722	0.074679073	-0.10047	1.0291714	0.037779901	0.037143875	0.89682368	0.16403439	-0.12490889	0.8831809	0.060739382	0.076190349	0.92982977	0.16546373	-0.031640149	0.8938467	0.099669029	-0.016153564	0.81855562	0.15256158	-0.0745834	0.81266635	0.04587939	0.029139478	1.1181339	0.51436623	-0.14965684	1.0051379	0.50319009	0.13396363	1.1537712	0.50844195	-0.017958892	0.98257577	0.49450883	0.0087701956	0.95593926	0.89998079	-0.17355398	0.96766584	0.91000588	0.19664162	1.0307319	0.98854584	-0.11859071	1.0519491	0.99557415	0.11932261	0.87327911	1.0453744	0.010050111	1.01965	1.4382405	-0.17964747	1.02604	1.4588493	0.15106438	0.95430272	1.4982187	-0.011074526	0.86498954	1.1000152	-0.21284368	0.89957477	1.1190553	0.25779088	0.98309248	0.86714888	-0.25782714	1.0748364	0.90426073	0.26039851
362	1.444	1.0387636	0.073519399	-0.10053212	1.0291821	0.037760015	0.037164162	0.91371965	0.15932062	-0.12501088	0.88329364	0.061145396	0.076159575	0.94659563	0.16173184	-0.031741269	0.89344926	0.10000481	-0.016146962	0.83604122	0.14545155	-0.074406935	0.81272921	0.046400834	0.028915038	1.1261582	0.51556295	-0.14976271	1.0062363	0.50319821	0.13390837	1.1612948	0.5097916	-0.018185102	0.98441184	0.4946598	0.0089912117	0.96161814	0.90043875	-0.17377236	0.97205727	0.91005599	0.19699841	1.0362769	0.9890533	-0.11864232	1.057237	0.99594743	0.11928624	0.87874011	1.0457056	0.0097654233	1.0247513	1.4386032	-0.17979266	1.0314782	1.4593929	0.15090802	0.95958109	1.4986178	-0.011165815	0.8696151	1.1007148	-0.21291817	0.90560943	1.1192614	0.25792445	0.98672793	0.86755581	-0.25850648	1.0820253	0.90536542	0.25977872
363	1.448	1.0580371	0.07246569	-0.10057663	1.0292074	0.037792742	0.037201068	0.9307384	0.15462885	-0.12510727	0.88340142	0.061548751	0.076123878	0.96359314	0.15802176	-0.031934171	0.89350798	0.10044192	-0.016108986	0.85373041	0.13835496	-0.07422764	0.81278476	0.046984967	0.028712603	1.1340788	0.51666592	-0.14988713	1.0073836	0.50321612	0.13385977	1.1688762	0.51102099	-0.018372874	0.98614792	0.4948221	0.0091259572	0.96729251	0.90081759	-0.17405945	0.9766208	0.91021651	0.19718225	1.041831	0.98948962	-0.11870831	1.0625145	0.9962739	0.11925129	0.88416902	1.0459907	0.0094495791	1.0298539	1.4389139	-0.17993625	1.0369307	1.4599088	0.15074215	0.96486177	1.498948	-0.011268777	0.87426142	1.1013534	-0.21298909	0.91168648	1.1194122	0.25808092	0.99041596	0.86789276	-0.2591795	1.0891813	0.90640563	0.25915448
364	1.452	1.0773578	0.071498691	-0.10061253	1.0293039	0.037861004	0.037251109	0.94786397	0.14998727	-0.12519139	0.88349436	0.061967673	0.076084321	0.98077952	0.15436723	-0.032217911	0.89391373	0.10091651	-0.016016615	0.87151424	0.13143373	-0.074102574	0.81285335	0.04766217	0.028572731	1.141841	0.51762201	-0.15004913	1.0085991	0.50325401	0.13382198	1.1764522	0.51212164	-0.018541299	0.98782961	0.49499672	0.0092281497	0.97298754	0.90110829	-0.17435972	0.98142383	0.91049918	0.1971676	1.0474036	0.98984931	-0.11878583	1.0677813	0.99654933	0.11923187	0.88958835	1.0462258	0.0091151376	1.0349555	1.439178	-0.18008224	1.0423777	1.4603583	0.15057606	0.97014208	1.4992148	-0.011376672	0.87891435	1.1019236	-0.21306339	0.91780571	1.1195014	0.25826014	0.99415389	0.86816669	-0.25984712	1.0962959	0.90737872	0.25852587
365	1.456	1.0967115	0.070625882	-0.10065592	1.0295307	0.0379579	0.037316805	0.96509119	0.14542013	-0.12525875	0.88357323	0.06239709	0.076026654	0.99814654	0.15079237	-0.032549831	0.89440181	0.10138166	-0.01586863	0.88940203	0.12472866	-0.074020017	0.81293351	0.04838068	0.02845458	1.1493894	0.51838651	-0.15024162	1.0099018	0.50332078	0.13382107	1.183903	0.51307972	-0.018725975	0.98949418	0.49517932	0.0093382115	0.97873544	0.90130424	-0.17460478	0.98626894	0.91083174	0.19706933	1.0530057	0.99012814	-0.11887327	1.0730398	0.99677133	0.11923306	0.89501995	1.046398	0.0087740334	1.0400559	1.4394021	-0.18023884	1.0477966	1.4607081	0.1504158	0.97541586	1.499424	-0.011481625	0.88360041	1.1024221	-0.21315558	0.92391386	1.1195192	0.25842925	0.99793977	0.86838399	-0.26050659	1.1033706	0.90828318	0.25789916
366	1.46	1.1161042	0.069866252	-0.1007224	1.0298966	0.03808386	0.037396823	0.98242603	0.14094	-0.12531225	0.8836566	0.062814265	0.075939777	1.0156636	0.14729439	-0.032832373	0.89481115	0.10183719	-0.015746195	0.90742634	0.11821587	-0.073998014	0.81299105	0.049086935	0.028272985	1.1567063	0.51896611	-0.1504462	1.011308	0.5034249	0.13388707	1.191167	0.51388943	-0.018942943	0.99116834	0.49535147	0.0094575686	0.98457709	0.90141007	-0.17481216	0.99079661	0.91116118	0.19701549	1.0586345	0.99033014	-0.11897065	1.0782984	0.99694442	0.11924238	0.90047518	1.0464986	0.0084286889	1.0451612	1.439593	-0.18042185	1.053185	1.4609554	0.15025738	0.98068073	1.4995781	-0.011581216	0.88833725	1.1028506	-0.21326542	0.92993229	1.1194553	0.25853681	1.0017732	0.86854415	-0.26115664	1.1104171	0.90912123	0.25728134
367	1.464	1.1355424	0.069233544	-0.10082733	1.0302885	0.038185597	0.037458526	0.9998875	0.13654357	-0.12536229	0.88375761	0.063211861	0.07583466	1.0331698	0.14384172	-0.032914614	0.89512385	0.10229945	-0.015746753	0.92550302	0.11191542	-0.074126533	0.81298188	0.049786486	0.027968399	1.1638036	0.51943717	-0.15065572	1.0128139	0.50354473	0.13403222	1.198213	0.51454994	-0.019189915	0.99287052	0.49549051	0.009549832	0.99053907	0.90144211	-0.17509113	0.99468318	0.91146883	0.19708717	1.0642773	0.99046078	-0.11907577	1.0835703	0.99707312	0.1192412	0.90595109	1.0465257	0.0080744634	1.0502768	1.4397505	-0.18063914	1.0585536	1.4611173	0.15009253	0.98594091	1.4996801	-0.011676434	0.89311253	1.1032151	-0.21337709	0.93587205	1.1193171	0.25858988	1.0056527	0.86864477	-0.26180063	1.1174509	0.90989848	0.25667191
